<svg xmlns="http://www.w3.org/2000/svg" style="display:none">
  <symbol id="logo" viewBox="0 0 24 24">
    <path d="M12 2c4.418 0 8 2.91 8 6.5 0 4.75-7 13-8 13s-8-8.25-8-13C4 4.91 7.582 2 12 2zm0 4a3 3 0 100 6 3 3 0 000-6z"/>
  </symbol>
  <symbol id="search" viewBox="0 0 24 24">
    <path d="M15.5 14h-.79l-.28-.27a6.471 6.471 0 001.48-4.23C15.91 6.01 13.1 3.2 9.66 3.2S3.4 6.01 3.4 9.5 6.21 15.8 9.66 15.8c1.61 0 3.09-.59 4.23-1.48l.27.28v.79l5 5 1.5-1.5-5-5zM9.66 14c-2.48 0-4.5-2.02-4.5-4.5S7.18 5 9.66 5s4.5 2.02 4.5 4.5S12.14 14 9.66 14z"/>
  </symbol>
  <symbol id="heart" viewBox="0 0 24 24">
    <path d="M12 21s-7.19-4.38-9.54-8.52C.68 9.66 2.36 6 6.08 6c2.02 0 3.33 1.1 3.92 2.02C10.59 7.1 11.9 6 13.92 6c3.72 0 5.4 3.66 3.62 6.48C19.19 16.62 12 21 12 21z"/>
  </symbol>
  <symbol id="star" viewBox="0 0 24 24">
    <path d="M12 17.27L18.18 21l-1.64-7.03L22 9.24l-7.19-.61L12 2 9.19 8.63 2 9.24l5.46 4.73L5.82 21z"/>
  </symbol>
  <symbol id="user" viewBox="0 0 24 24">
    <path d="M12 12c2.76 0 5-2.24 5-5S14.76 2 12 2 7 4.24 7 7s2.24 5 5 5zm0 2c-3.33 0-10 1.67-10 5v3h20v-3c0-3.33-6.67-5-10-5z"/>
  </symbol>
  <symbol id="comment" viewBox="0 0 24 24">
    <path d="M21 6h-18v12h4v4l4-4h10z"/>
  </symbol>
  <symbol id="settings" viewBox="0 0 24 24">
    <path d="M19.14 12.94a7.48 7.48 0 000-1.88l2.03-1.58-2-3.46-2.39.96a7.55 7.55 0 00-1.63-.95l-.36-2.54h-4l-.36 2.54c-.57.22-1.11.52-1.63.95l-2.39-.96-2 3.46 2.03 1.58a7.48 7.48 0 000 1.88L2.41 14.5l2 3.46 2.39-.96c.51.43 1.06.77 1.63.95l.36 2.54h4l.36-2.54c.57-.18 1.12-.52 1.63-.95l2.39.96 2-3.46-2.03-1.56zM12 15.6a3.6 3.6 0 110-7.2 3.6 3.6 0 010 7.2z"/>
  </symbol>
</svg>
