<svg xmlns="http://www.w3.org/2000/svg" style="display:none">
  <symbol id="leaf" viewBox="0 0 24 24">
    <path d="M4 12c6-10 16-8 16-8s2 10-8 16C8 22 4 18 4 12z" fill="currentColor"/>
  </symbol>
  <symbol id="cup" viewBox="0 0 24 24">
    <path d="M4 8h12a4 4 0 0 0 0 8H7a3 3 0 0 1-3-3V8z" fill="currentColor"/>
    <path d="M16 8h2a3 3 0 1 1 0 6h-2" stroke="currentColor" fill="none"/>
  </symbol>
  <symbol id="snow" viewBox="0 0 24 24">
    <path d="M12 2v20M4.5 5.5l15 13M19.5 5.5l-15 13" stroke="currentColor" stroke-width="2"/>
  </symbol>
  <symbol id="search" viewBox="0 0 24 24">
    <circle cx="11" cy="11" r="7" stroke="currentColor" stroke-width="2" fill="none"/>
    <path d="M20 20l-4-4" stroke="currentColor" stroke-width="2" />
  </symbol>
  <symbol id="theme" viewBox="0 0 24 24">
    <path d="M12 3a9 9 0 1 0 9 9 7 7 0 0 1-9-9z" fill="currentColor"/>
  </symbol>
</svg>
