<!-- /assets/icons/te.svg — emoji-style te-kop med damp -->
<svg xmlns="http://www.w3.org/2000/svg" viewBox="0 0 64 64">
  <defs>
    <!-- porcelæn -->
    <linearGradient id="cupFill" x1="0" y1="0" x2="0" y2="1">
      <stop offset="0" stop-color="#ffffff"></stop>
      <stop offset="1" stop-color="#e9e9ec"></stop>
    </linearGradient>
    <radialGradient id="cupShade" cx="32" cy="40" r="22" gradientUnits="userSpaceOnUse">
      <stop offset="0" stop-color="#000" stop-opacity=".08"></stop>
      <stop offset="1" stop-color="#000" stop-opacity="0"></stop>
    </radialGradient>
    <!-- te -->
    <linearGradient id="tea" x1="0" y1="0" x2="0" y2="1">
      <stop offset="0" stop-color="#d7a058"></stop>
      <stop offset="1" stop-color="#b6762e"></stop>
    </linearGradient>
    <!-- skygge underkop -->
    <radialGradient id="plateShadow" cx="32" cy="54" r="18" gradientUnits="userSpaceOnUse">
      <stop offset="0" stop-color="#000" stop-opacity=".18"></stop>
      <stop offset="1" stop-color="#000" stop-opacity="0"></stop>
    </radialGradient>
  </defs>

  <!-- blød skygge på bordet -->
  <ellipse cx="32" cy="54" rx="20" ry="6" fill="url(#plateShadow)"></ellipse>

  <!-- underkop -->
  <ellipse cx="32" cy="50" rx="22" ry="6" fill="url(#cupFill)"></ellipse>
  <ellipse cx="32" cy="50" rx="22" ry="6" fill="url(#cupShade)"></ellipse>

  <!-- kop -->
  <path d="M14 22h28c3.5 0 6 2.8 6 6v10c0 9-7.3 16-16.3 16H24.3C15.3 54 8 47 8 38V28c0-3.2 2.6-6 6-6z" fill="url(#cupFill)"></path>
  <!-- kop highlight -->
  <path d="M16 24h24c2.4 0 4 1.9 4 4v6c0 8-6.2 14-14 14H26c-7.8 0-14-6-14-14v-6c0-2.1 1.7-4 4-4z" fill="#fff" opacity=".35"></path>

  <!-- hank -->
  <path d="M42 26h4.5c5 0 9 3.9 9 8.8S51.5 44 46.5 44H42v-4.5h4.5c2.9 0 5.2-2.2 5.2-4.7 0-2.6-2.3-4.8-5.2-4.8H42V26z" fill="url(#cupFill)"></path>

  <!-- te i koppen -->
  <path d="M12 30c0-1.8 1.5-3 3.4-3h25.2c1.9 0 3.4 1.2 3.4 3v3.5c0 6.8-5.8 12.5-12.9 12.5H24.9C17.8 46 12 40.3 12 33.5V30z" fill="url(#tea)"></path>

  <!-- damp (bløde former) -->
  <path d="M23 14c2.2 2 2.2 4.2 0 6.2 2.2 2 2.2 4.2 0 6.2" fill="none" stroke="#d0d0d5" stroke-width="2.2" stroke-linecap="round"></path>
  <path d="M31 12.5c2.3 2.2 2.3 4.6 0 6.8 2.3 2.2 2.3 4.6 0 6.8" fill="none" stroke="#d0d0d5" stroke-width="2.2" stroke-linecap="round"></path>
  <path d="M39 14c2 1.8 2 3.8 0 5.6 2 1.8 2 3.8 0 5.6" fill="none" stroke="#d0d0d5" stroke-width="2.2" stroke-linecap="round"></path>
</svg>
